#!OML:ASF E:\Steps\Project 1\Capture day 1\Session 2\Subject.ASF
:FULLY-SPECIFIED
:DEGREES
348
root 11.4382 16.0081 11.8295 29.0811 -172.699 359.291
lowerback -23.9148 -0.52096 -8.89104
upperback -4.18274 0.854947 -3.9819
thorax 8.56446 -0.255382 0.864976
lowerneck 1.44092 0.189833 -2.88167
upperneck 8.81171 -0.635364 6.65226
head 2.60878 -0.415646 2.65589
rclavicle 1.80894e-014 5.56597e-014
rhumerus -44.9487 23.0079 -108.742
rradius 83.1546
rwrist -18.6246
rhand -2.21831 -40.0336
rfingers 7.12502
rthumb 23.464 -68.6228
lclavicle 1.80894e-014 5.56597e-014
lhumerus -44.0587 -25.4014 102.395
lradius 87.424
lwrist 7.12819
lhand -29.1567 -30.4083
lfingers 7.12502
lthumb -2.50307 -0.443283
rfemur -45.9561 7.44319 17.9223
rtibia 35.4846
rfoot -26.243 -11.7217
rtoes -35.5453
lfemur -40.2045 -12.6878 -16.1759
ltibia 32.9128
lfoot 158.678 190.957
ltoes -48.1617
349
root 11.4399 15.9883 11.8625 29.0325 -173.323 359.335
lowerback -23.7541 -0.546082 -8.89434
upperback -4.09081 0.825091 -3.90215
thorax 8.58554 -0.263859 0.947043
lowerneck 1.40352 0.162447 -2.88595
upperneck 8.78229 -0.673657 6.68727
head 2.60835 -0.433868 2.66781
rclavicle -2.98177e-015 1.59028e-014
rhumerus -44.4129 22.5855 -108.5
rradius 82.4353
rwrist -17.5526
rhand -4.86943 -37.928
rfingers 7.12502
rthumb 20.9189 -66.82
lclavicle -2.98177e-015 1.59028e-014
lhumerus -43.2902 -25.2578 102.188
lradius 86.569
lwrist 7.12261
lhand -28.9672 -30.2055
lfingers 7.12502
lthumb -2.32001 -0.238397
rfemur -45.5162 8.18234 17.5807
rtibia 34.2859
rfoot -26.2917 -11.6884
rtoes -34.544
lfemur -40.3512 -12.4539 -16.2154
ltibia 33.0972
lfoot 158.58 191.039
ltoes -48.1565
350
root 11.4384 15.9769 11.8973 28.8919 -173.773 359.4
lowerback -23.3454 -0.579113 -8.81772
upperback -4.01139 0.743028 -3.80312
thorax 8.46842 -0.285109 0.993539
lowerneck 1.37058 0.146652 -2.89085
upperneck 8.77718 -0.697746 6.70811
head 2.61432 -0.445694 2.67555
rclavicle -1.61016e-014 3.81667e-014
rhumerus -43.9406 21.9893 -108.206
rradius 81.6435
rwrist -16.2349
rhand -1.25095 -41.9456
rfingers 7.12502
rthumb 24.3917 -70.4131
lclavicle -1.61016e-014 3.81667e-014
lhumerus -42.565 -25.2541 101.97
lradius 85.5785
lwrist 7.1063
lhand -29.0394 -30.0482
lfingers 7.12502
lthumb -2.38972 -0.081874
rfemur -45.0552 8.68506 17.435
rtibia 33.2211
rfoot -25.7777 -11.4001
rtoes -32.9176
lfemur -40.518 -12.4087 -16.1771
ltibia 33.5264
lfoot 158.373 191.131
ltoes -48.1382
351
root 11.4386 15.9802 11.923 28.3544 -174.154 359.568
lowerback -22.4587 -0.588386 -8.65282
upperback -3.91775 0.637518 -3.64631
thorax 8.11836 -0.296407 1.05418
lowerneck 1.33693 0.153136 -2.93944
upperneck 8.80251 -0.692566 6.71509
head 2.62923 -0.444732 2.68758
rclavicle 3.29983e-014 -7.79236e-014
rhumerus -43.6498 21.3605 -107.834
rradius 80.8303
rwrist -14.848
rhand -2.08545 -41.9071
rfingers 7.12502
rthumb 23.5914 -70.4799
lclavicle 3.29983e-014 -7.79236e-014
lhumerus -42.0799 -25.1999 101.777
lradius 84.5984
lwrist 6.93369
lhand -29.3078 -30.1546
lfingers 7.12502
lthumb -2.64898 -0.191311
rfemur -44.1798 9.18276 17.6197
rtibia 32.3931
rfoot -25.0438 -11.3265
rtoes -32.4049
lfemur -40.1376 -12.4787 -16.0968
ltibia 33.8716
lfoot 158.252 191.355
ltoes -48.0041
352
root 11.4426 15.978 11.9562 28.4243 -174.816 359.906
lowerback -22.1468 -0.456368 -8.43293
upperback -4.03356 0.706926 -3.50248
thorax 7.82202 -0.243948 1.1144
lowerneck 1.39892 0.161381 -3.04944
upperneck 8.82851 -0.689062 6.73248
head 2.62767 -0.449018 2.71391
rclavicle 2.46493e-014 -2.06736e-014
rhumerus -43.5023 20.6426 -107.381
rradius 80.0557
rwrist -13.5512
rhand -2.67597 -41.7017
rfingers 7.12502
rthumb 23.0249 -70.3464
lclavicle 2.46493e-014 -2.06736e-014
lhumerus -41.7659 -25.0667 101.672
lradius 83.5468
lwrist 6.7857
lhand -28.7394 -30.2088
lfingers 7.12502
lthumb -2.10005 -0.239368
rfemur -44.5321 9.85637 17.8251
rtibia 32.379
rfoot -24.5531 -11.3774
rtoes -32.706
lfemur -40.5161 -12.2101 -15.7732
ltibia 34.2479
lfoot 158.26 191.823
ltoes -47.9311
353
root 11.4484 15.9844 11.9888 28.4895 -175.43 360.201
lowerback -22.0287 -0.324881 -8.33261
upperback -3.96888 0.864253 -3.38133
thorax 7.82068 -0.157245 1.23635
lowerneck 1.48365 0.148769 -3.10611
upperneck 8.83724 -0.713495 6.74595
head 2.61718 -0.466 2.72815
rclavicle -1.5704e-014 6.20208e-014
rhumerus -43.1028 19.8128 -106.757
rradius 79.2884
rwrist -12.0941
rhand -2.6567 -42.3153
rfingers 7.12502
rthumb 23.0434 -70.9576
lclavicle -1.5704e-014 6.20208e-014
lhumerus -41.1726 -25.0504 101.458
lradius 82.4209
lwrist 6.67938
lhand -27.4671 -30.0539
lfingers 7.12502
lthumb -0.87127 -0.0759468
rfemur -45.0095 10.5856 17.8731
rtibia 32.5466
rfoot -24.3622 -11.3049
rtoes -32.2791
lfemur -40.7927 -11.9243 -15.4985
ltibia 34.4297
lfoot 158.41 192.331
ltoes -48.0183
